<?xml version="1.0" encoding="utf-8"?>
<!-- Generator: Adobe Illustrator 25.1.0, SVG Export Plug-In . SVG Version: 6.00 Build 0)  -->
<svg version="1.1" id="Laag_1" xmlns="http://www.w3.org/2000/svg" xmlns:xlink="http://www.w3.org/1999/xlink" x="0px" y="0px"
	 viewBox="0 0 227.8 230.3" style="enable-background:new 0 0 227.8 230.3;" xml:space="preserve">
<style type="text/css">
	.st0{display:none;fill:#010657;}
	.st1{fill:#5566FF;}
</style>
<path class="st0" d="M183.3,205.1H42.9c-13.3,0-24.2-10.9-24.2-24.2V40.5c0-13.3,10.9-24.2,24.2-24.2h140.4
	c13.3,0,24.2,10.9,24.2,24.2V181C207.5,194.3,196.6,205.1,183.3,205.1z"/>
<g>
	<path class="st1" d="M112.7,138.5c-1.9,16.7-9.2,31.6-28.3,31.6c-15.2,0-25.8-9.1-25.6-27.9l0.2-55.1H48.5v-1.6
		C65,82,77.4,69.8,82.1,52.3h1.7v30.2h26.5l-0.9,4.5H83.9v55.3c0,9.9,3.7,15.2,11,15.2c8.2,0,13.8-7,16-19.5L112.7,138.5z"/>
</g>
<g>
	<path class="st1" d="M179.2,105c0-5.9-3.7-9.4-10.5-9.4c-10.2,0-19.2,12.5-19.2,30.3v24.8c0,11.8,4.6,15.3,14.4,19.1v0.4h-49v-0.4
		c8-4.5,8.9-7.3,8.9-19.1v-48.4c0-11.4-1.6-15-10-19.4v-0.4h35.6v29.2c4.3-16.4,12.6-31,28.5-31c10.9,0,18.2,7.1,18.2,16.9
		c0,11.8-8.2,17.8-16.2,17.8c-2.8,0-5.2-0.9-6.2-2C177.1,112.1,179.2,108.9,179.2,105z"/>
</g>
</svg>
